<svg width="44" height="43" viewBox="0 0 44 43" fill="none" xmlns="http://www.w3.org/2000/svg">
    <path d="M0.317557 22.7444C0.303118 22.6824 0.295898 22.6204 0.295898 22.5584C0.295898 20.9463 0.389753 19.2722 0.577462 17.5361C0.779611 15.7225 1.09366 13.9088 1.51962 12.0952C1.94557 10.2816 2.52314 8.63851 3.25232 7.16591C3.9815 5.69332 4.86951 4.47261 5.91635 3.5038C6.96319 2.53499 8.23022 1.95758 9.71746 1.77157C9.97736 1.74056 10.2445 1.72506 10.5188 1.72506C11.2552 1.72506 12.0133 1.84907 12.793 2.09709C13.8759 2.42261 14.7567 2.99614 15.4354 3.8177C16.2006 3.8797 16.8143 4.20522 17.2764 4.79426C17.7384 5.3833 18.085 6.09634 18.316 6.9334C18.547 7.77045 18.7167 8.63463 18.825 9.52594C18.9333 10.4172 19.0163 11.1962 19.074 11.8627C19.2184 13.3198 19.3123 14.9009 19.3556 16.606C19.37 16.9315 19.3773 17.2648 19.3773 17.6058C19.3773 18.9699 19.3051 20.3418 19.1607 21.7213C18.9874 23.4575 18.677 25.1432 18.2294 26.7785C17.7817 28.4139 17.1609 29.8904 16.3667 31.208C15.5725 32.5255 14.5618 33.63 13.3345 34.5213C12.1071 35.4126 10.6199 35.9513 8.87277 36.1373C10.3744 36.8658 11.8436 37.637 13.2803 38.4508C14.717 39.2646 16.2006 39.9583 17.7312 40.5318C17.8756 40.5938 18.0741 40.6403 18.3268 40.6713C18.5795 40.7023 18.8322 40.7566 19.0849 40.8341C19.3376 40.9116 19.5614 41.0046 19.7563 41.1131C19.9512 41.2216 20.0631 41.3921 20.092 41.6246C20.092 41.8106 20.0018 41.9734 19.8213 42.1129C19.6408 42.2524 19.4242 42.3803 19.1715 42.4966C18.9188 42.6128 18.6697 42.7019 18.4243 42.7639C18.1788 42.8259 17.9911 42.8724 17.8612 42.9035H17.5146H16.9623C16.9623 42.9035 16.7927 42.888 16.4533 42.8569C16.114 42.8259 16.0274 42.7794 16.1934 42.7174C15.457 42.6244 14.5979 42.3454 13.616 41.8804C12.6342 41.4154 11.6343 40.8844 10.6163 40.2877C9.59834 39.6909 8.60203 39.098 7.62739 38.5089C6.65274 37.9199 5.78278 37.4471 5.01751 37.0906L4.77926 36.4395C4.83702 36.3155 4.9417 36.2031 5.09331 36.1024C5.24493 36.0016 5.39293 35.9203 5.53732 35.8582C4.62765 35.5482 3.86959 35.0832 3.26315 34.4632C2.6567 33.8431 2.16577 33.1339 1.79035 32.3356C1.41493 31.5373 1.12615 30.6848 0.924002 29.778C0.721854 28.8712 0.577462 27.9605 0.490827 27.0459C0.375314 25.8369 0.317557 24.403 0.317557 22.7444ZM4.51936 22.7909C4.54823 24.0775 4.60599 25.1781 4.69263 26.0926C4.72151 26.5732 4.80453 27.1699 4.9417 27.883C5.07887 28.596 5.25575 29.3168 5.47234 30.0454C5.68893 30.7739 5.95244 31.4482 6.26289 32.0683C6.57333 32.6883 6.92348 33.1456 7.31334 33.4401C7.57324 33.5951 7.82954 33.7114 8.08222 33.7889C8.33491 33.8664 8.58398 33.9826 8.82945 34.1376C9.19043 34.1066 9.49365 34.0214 9.73912 33.8819C9.98458 33.7424 10.2734 33.6416 10.6055 33.5796L10.6488 33.5331C11.6884 33.0216 12.5764 32.2814 13.3128 31.3126C14.0492 30.3438 14.6593 29.2471 15.143 28.0225C15.6267 26.7979 16.0021 25.4803 16.2692 24.0697C16.5364 22.6592 16.7205 21.2486 16.8215 19.838C16.8937 18.7374 16.9298 17.6678 16.9298 16.6293V15.7457C16.9009 14.4281 16.8432 13.2423 16.7566 12.1882C16.641 11.2117 16.5255 10.239 16.41 9.27017C16.2945 8.30136 16.0707 7.35192 15.7386 6.42186C15.1466 6.57687 14.7098 6.62338 14.4282 6.56137C14.1467 6.49937 13.8904 6.1661 13.6594 5.56156C13.5727 5.56156 13.4753 5.53831 13.367 5.4918C13.2587 5.4453 13.1901 5.36005 13.1612 5.23604C13.1612 5.14303 13.1901 5.06553 13.2478 5.00352C12.6558 4.36798 12.0349 4.00371 11.3852 3.9107C11.1108 3.8642 10.8076 3.84095 10.4755 3.84095C10.0568 3.84095 9.59473 3.8797 9.08936 3.95721H9.04604C8.30964 4.53074 7.68154 5.34842 7.16173 6.41024C6.64192 7.47206 6.20513 8.67726 5.85137 10.0258C5.49761 11.3744 5.21605 12.7928 5.00668 14.2809C4.79731 15.769 4.65653 17.2416 4.58433 18.6987C4.52658 19.7217 4.4977 20.7138 4.4977 21.6748C4.4977 22.0469 4.50492 22.4189 4.51936 22.7909ZM9.52253 36.0443C9.59473 36.0133 9.70302 35.9978 9.84741 35.9978C9.78966 35.9978 9.73912 36.0055 9.6958 36.021C9.65248 36.0365 9.59473 36.0443 9.52253 36.0443ZM24.5682 28.4875C24.5682 25.1238 24.709 21.7562 24.9906 18.3848C25.2721 15.0133 25.8605 11.6922 26.7558 8.42149C27.0157 7.44493 27.355 6.47999 27.7737 5.52668C28.1925 4.57337 28.705 3.72469 29.3115 2.98064C29.9179 2.2366 30.6399 1.63206 31.4774 1.16703C32.3148 0.701997 33.3111 0.469482 34.4663 0.469482L34.9211 0.515985C36.1629 0.701997 37.0798 1.24066 37.6718 2.13196C38.2638 3.02327 38.5598 4.13547 38.5598 5.46855C38.5598 5.82508 38.5201 6.27073 38.4407 6.80551C38.3612 7.3403 38.2349 7.85571 38.0616 8.35174C37.8884 8.84777 37.6537 9.27017 37.3577 9.61894C37.0617 9.96772 36.6899 10.1421 36.2423 10.1421C36.0401 10.1111 35.856 10.0723 35.69 10.0258C35.5239 9.97934 35.3687 9.87859 35.2243 9.72358C35.4554 9.18104 35.6611 8.61525 35.8416 8.02622C36.0221 7.43718 36.1123 6.76289 36.1123 6.00334C36.1123 5.72432 36.0907 5.3678 36.0474 4.93377C36.004 4.49974 35.921 4.06959 35.7983 3.64331C35.6756 3.21703 35.5131 2.84501 35.311 2.52724C35.1088 2.20947 34.8273 2.05058 34.4663 2.05058C33.5566 2.05058 32.7913 2.59699 32.1704 3.68981C31.5496 4.78263 31.0298 6.17772 30.611 7.87508C30.1923 9.57244 29.8818 11.4481 29.6797 13.5019C29.4775 15.5558 29.3223 17.5399 29.214 19.4543C29.1057 21.3687 29.0444 23.0971 29.0299 24.6394C29.0155 26.1818 29.0083 27.2707 29.0083 27.9062C29.0083 28.6503 29.001 29.4718 28.9866 30.3709V30.6732C29.001 31.4637 29.0516 32.2155 29.1382 32.9286C29.2537 33.7346 29.4775 34.4322 29.8096 35.0212C30.1417 35.6102 30.6616 35.9513 31.3691 36.0443C31.5857 36.0753 31.795 36.0908 31.9972 36.0908C32.8346 36.0908 33.5927 35.835 34.2713 35.3235C35.1088 34.6879 35.8524 33.8625 36.5022 32.8472C37.152 31.8319 37.7295 30.7158 38.2349 29.499C38.7403 28.2821 39.2059 27.1312 39.6319 26.0461C40.0578 24.9611 40.473 24.062 40.8773 23.3489C41.2816 22.6359 41.7003 22.2794 42.1335 22.2794C42.2779 22.2794 42.4945 22.3104 42.7832 22.3724C43.072 22.4344 43.2164 22.5816 43.2164 22.8142C43.2164 22.8762 43.202 22.9614 43.1731 23.0699C43.1442 23.1784 43.1081 23.2637 43.0648 23.3257C42.6749 24.9688 42.1804 26.6739 41.5812 28.441C40.982 30.2081 40.2167 31.8164 39.2854 33.2657C38.354 34.7151 37.2133 35.897 35.8633 36.8116C34.5132 37.7261 32.8924 38.1834 31.0009 38.1834C29.6436 38.1834 28.5426 37.9083 27.6979 37.358C26.8532 36.8077 26.2035 36.0714 25.7486 35.1491C25.2938 34.2268 24.9833 33.1843 24.8173 32.0218C24.6512 30.8592 24.5682 29.6811 24.5682 28.4875Z" fill="#005381"/>
</svg>
