<svg width="54" height="60" viewBox="0 0 54 60" fill="none" xmlns="http://www.w3.org/2000/svg">
<path d="M0.323626 31.2423C0.305629 31.1555 0.296631 31.0687 0.296631 30.9819C0.296631 28.7249 0.413609 26.3812 0.647566 23.9506C0.899519 21.4115 1.29095 18.8725 1.82185 16.3334C2.35275 13.7944 3.07261 11.494 3.98145 9.43237C4.89028 7.37074 5.99707 5.66176 7.30183 4.30542C8.60659 2.94908 10.1858 2.14071 12.0394 1.88029C12.3634 1.83689 12.6963 1.81519 13.0383 1.81519C13.9561 1.81519 14.9009 1.9888 15.8727 2.33602C17.2225 2.79175 18.3203 3.5947 19.1661 4.74487C20.1199 4.83168 20.8848 5.28741 21.4607 6.11206C22.0366 6.93671 22.4685 7.93498 22.7565 9.10685C23.0444 10.2787 23.2559 11.4886 23.3908 12.7364C23.5258 13.9842 23.6293 15.0747 23.7013 16.0079C23.8812 18.0478 23.9982 20.2614 24.0522 22.6485C24.0702 23.1042 24.0792 23.5708 24.0792 24.0483C24.0792 25.958 23.9892 27.8786 23.8093 29.81C23.5933 32.2405 23.2064 34.6006 22.6485 36.8901C22.0906 39.1796 21.3167 41.2466 20.3269 43.0912C19.3371 44.9358 18.0773 46.4821 16.5476 47.7299C15.0179 48.9777 13.1642 49.7319 10.9866 49.9923C12.8583 51.0122 14.6895 52.0919 16.4801 53.2312C18.2708 54.3705 20.1199 55.3417 22.0276 56.1446C22.2076 56.2314 22.455 56.2965 22.77 56.3399C23.0849 56.3833 23.3998 56.4593 23.7148 56.5678C24.0297 56.6763 24.3087 56.8065 24.5516 56.9584C24.7946 57.1103 24.934 57.349 24.97 57.6746C24.97 57.935 24.8576 58.1628 24.6326 58.3582C24.4076 58.5535 24.1377 58.7325 23.8228 58.8953C23.5078 59.058 23.1974 59.1828 22.8914 59.2696C22.5855 59.3564 22.3515 59.4215 22.1896 59.4649H21.7576H21.0693C21.0693 59.4649 20.8578 59.4432 20.4349 59.3998C20.012 59.3564 19.904 59.2913 20.1109 59.2045C19.1931 59.0743 18.1223 58.6837 16.8985 58.0326C15.6748 57.3816 14.4285 56.6383 13.1597 55.8028C11.891 54.9673 10.6492 54.1372 9.43443 53.3126C8.21966 52.4879 7.13536 51.826 6.18154 51.3269L5.88459 50.4154C5.95658 50.2418 6.08705 50.0845 6.27602 49.9434C6.46498 49.8024 6.64945 49.6885 6.82942 49.6016C5.69563 49.1676 4.7508 48.5166 3.99494 47.6485C3.23908 46.7805 2.6272 45.7876 2.15928 44.67C1.69137 43.5524 1.33144 42.3588 1.07949 41.0893C0.827532 39.8197 0.647566 38.5448 0.539586 37.2644C0.395612 35.5717 0.323626 33.5643 0.323626 31.2423ZM5.56065 31.3074C5.59664 33.1086 5.66863 34.6494 5.77661 35.9298C5.8126 36.6025 5.91609 37.438 6.08705 38.4363C6.25802 39.4345 6.47848 40.4437 6.74843 41.4636C7.01838 42.4836 7.34682 43.4276 7.73375 44.2957C8.12068 45.1637 8.55709 45.8039 9.043 46.2162C9.36694 46.4332 9.68638 46.596 10.0013 46.7045C10.3163 46.813 10.6267 46.9758 10.9327 47.1928C11.3826 47.1494 11.7605 47.03 12.0664 46.8347C12.3724 46.6394 12.7323 46.4983 13.1462 46.4115L13.2002 46.3464C14.496 45.6303 15.6028 44.594 16.5206 43.2377C17.4384 41.8814 18.1988 40.346 18.8017 38.6316C19.4046 36.9172 19.8725 35.0726 20.2054 33.0977C20.5384 31.1229 20.7678 29.1481 20.8938 27.1733C20.9838 25.6325 21.0288 24.1351 21.0288 22.6811V21.4441C20.9928 19.5995 20.9208 17.9393 20.8128 16.4636C20.6688 15.0964 20.5249 13.7347 20.3809 12.3783C20.2369 11.022 19.958 9.69279 19.5441 8.39071C18.8062 8.60772 18.2618 8.67282 17.9109 8.58602C17.5599 8.49921 17.2405 8.03263 16.9525 7.18628C16.8446 7.18628 16.7231 7.15373 16.5881 7.08862C16.4531 7.02352 16.3676 6.90416 16.3316 6.73055C16.3316 6.60034 16.3676 6.49184 16.4396 6.40503C15.7018 5.51527 14.9279 5.00529 14.1181 4.87508C13.7761 4.80998 13.3982 4.77743 12.9843 4.77743C12.4624 4.77743 11.8865 4.83168 11.2566 4.94019H11.2026C10.2848 5.74314 9.50192 6.88789 8.85404 8.37443C8.20616 9.86098 7.66176 11.5483 7.22084 13.4363C6.77992 15.3243 6.42899 17.31 6.16804 19.3933C5.90709 21.4766 5.73162 23.5383 5.64164 25.5782C5.56965 27.0105 5.53366 28.3994 5.53366 29.7449C5.53366 30.2657 5.54266 30.7865 5.56065 31.3074ZM11.7965 49.8621C11.8865 49.8187 12.0214 49.797 12.2014 49.797C12.1294 49.797 12.0664 49.8078 12.0125 49.8295C11.9585 49.8512 11.8865 49.8621 11.7965 49.8621ZM30.5491 39.2826C30.5491 34.5734 30.7246 29.8588 31.0755 25.1388C31.4264 20.4187 32.1598 15.7692 33.2756 11.1902C33.5995 9.823 34.0224 8.47209 34.5444 7.13745C35.0663 5.80282 35.7051 4.61466 36.461 3.573C37.2169 2.53133 38.1167 1.68498 39.1605 1.03394C40.2043 0.382894 41.4461 0.057373 42.8858 0.057373L43.4527 0.122477C45.0004 0.382894 46.1432 1.13702 46.8811 2.38485C47.6189 3.63268 47.9878 5.18975 47.9878 7.05607C47.9878 7.5552 47.9384 8.17912 47.8394 8.92782C47.7404 9.67651 47.5829 10.3981 47.367 11.0925C47.151 11.787 46.8586 12.3783 46.4896 12.8666C46.1207 13.3549 45.6573 13.599 45.0994 13.599C44.8474 13.5556 44.618 13.5014 44.411 13.4363C44.2041 13.3712 44.0106 13.2301 43.8306 13.0131C44.1186 12.2536 44.375 11.4615 44.6 10.6368C44.8249 9.81215 44.9374 8.86814 44.9374 7.80477C44.9374 7.41414 44.9104 6.91501 44.8564 6.30737C44.8024 5.69973 44.699 5.09752 44.546 4.50073C44.393 3.90394 44.1906 3.38311 43.9386 2.93823C43.6866 2.49335 43.3357 2.27091 42.8858 2.27091C41.752 2.27091 40.7982 3.03589 40.0243 4.56584C39.2505 6.09578 38.6026 8.04891 38.0807 10.4252C37.5588 12.8015 37.1719 15.4274 36.9199 18.3028C36.668 21.1783 36.4745 23.956 36.3395 26.6361C36.2045 29.3163 36.1281 31.736 36.1101 33.8953C36.0921 36.0546 36.0831 37.5791 36.0831 38.4688C36.0831 39.5105 36.0741 40.6607 36.0561 41.9194V42.3425C36.0741 43.4493 36.1371 44.5018 36.245 45.5001C36.389 46.6286 36.668 47.6051 37.0819 48.4298C37.4958 49.2544 38.1437 49.7319 39.0255 49.8621C39.2955 49.9055 39.5564 49.9272 39.8084 49.9272C40.8522 49.9272 41.797 49.5691 42.6428 48.8529C43.6866 47.9632 44.6135 46.8076 45.4233 45.3862C46.2332 43.9647 46.953 42.4022 47.5829 40.6987C48.2128 38.9951 48.7932 37.3838 49.3241 35.8647C49.855 34.3456 50.3724 33.0869 50.8763 32.0886C51.3802 31.0904 51.9021 30.5912 52.442 30.5912C52.622 30.5912 52.8919 30.6346 53.2519 30.7214C53.6118 30.8082 53.7918 31.0144 53.7918 31.3399C53.7918 31.4267 53.7738 31.5461 53.7378 31.698C53.7018 31.8499 53.6568 31.9693 53.6028 32.0561C53.1169 34.3564 52.5005 36.7436 51.7536 39.2175C51.0068 41.6915 50.053 43.943 48.8922 45.9721C47.7314 48.0012 46.3097 49.6559 44.627 50.9363C42.9443 52.2167 40.9242 52.8569 38.5666 52.8569C36.8749 52.8569 35.5027 52.4717 34.4499 51.7013C33.3971 50.9309 32.5872 49.9 32.0203 48.6088C31.4534 47.3176 31.0665 45.8582 30.8595 44.2306C30.6526 42.6029 30.5491 40.9536 30.5491 39.2826Z" fill="white"/>
</svg>
