<?xml version="1.0"?>
<svg version="1.1" xmlns="http://www.w3.org/2000/svg" width="200" height="135" viewBox="0 40 100 105" style=""><path fill="#573b8a" d="M18.02734375,89.86328125q-0.048828125-0.1953125-0.048828125-0.390625q0-5.078125,0.634765625-10.546875q0.68359375-5.712890625,2.1240234375-11.42578125t3.90625-10.3515625t6.005859375-7.6904296875t8.5693359375-3.6376953125q0.87890625-0.09765625,1.806640625-0.09765625q2.490234375,0,5.126953125,0.78125q3.662109375,1.025390625,5.95703125,3.61328125q2.587890625,0.1953125,4.150390625,2.05078125t2.34375,4.4921875t1.1474609375,5.4443359375t0.5615234375,4.9072265625q0.48828125,4.58984375,0.634765625,9.9609375q0.048828125,1.025390625,0.048828125,2.099609375q0,4.296875-0.48828125,8.642578125q-0.5859375,5.46875-2.099609375,10.6201171875t-4.19921875,9.3017578125t-6.8359375,6.9580078125t-10.05859375,3.3935546875q5.078125,2.294921875,9.9365234375,4.8583984375t10.0341796875,4.3701171875q0.48828125,0.1953125,1.3427734375,0.29296875t1.708984375,0.341796875t1.513671875,0.5859375t0.7568359375,1.07421875q0,0.5859375-0.6103515625,1.025390625t-1.46484375,0.8056640625t-1.6845703125,0.5615234375t-1.26953125,0.29296875l-0.78125,0l-1.2451171875,0t-1.1474609375-0.09765625t-0.5859375-0.29296875q-2.490234375-0.29296875-5.810546875-1.7578125t-6.7626953125-3.3447265625t-6.73828125-3.7353515625t-5.8837890625-2.978515625l-0.537109375-1.3671875q0.1953125-0.390625,0.7080078125-0.7080078125t1.0009765625-0.5126953125q-3.076171875-0.9765625-5.126953125-2.9296875t-3.3203125-4.4677734375t-1.953125-5.37109375t-0.9765625-5.7373046875q-0.390625-3.80859375-0.390625-9.033203125z M27.5,89.9609375q0.09765625,4.052734375,0.390625,6.93359375q0.09765625,1.513671875,0.5615234375,3.759765625t1.1962890625,4.541015625t1.7822265625,4.248046875t2.3681640625,2.880859375q0.87890625,0.48828125,1.7333984375,0.732421875t1.6845703125,0.732421875q1.220703125-0.09765625,2.05078125-0.537109375t1.953125-0.634765625l0.09765625-0.09765625q3.515625-1.611328125,6.005859375-4.6630859375t4.1259765625-6.9091796875t2.5390625-8.30078125t1.2451171875-8.88671875q0.244140625-3.466796875,0.244140625-6.73828125l0-1.85546875q-0.09765625-4.150390625-0.390625-7.470703125q-0.390625-3.076171875-0.78125-6.1279296875t-1.513671875-5.9814453125q-2.001953125,0.48828125-2.9541015625,0.29296875t-1.7333984375-2.099609375q-0.29296875,0-0.6591796875-0.146484375t-0.4638671875-0.537109375q0-0.29296875,0.1953125-0.48828125q-2.001953125-2.001953125-4.19921875-2.294921875q-0.927734375-0.146484375-2.05078125-0.146484375q-1.416015625,0-3.125,0.244140625l-0.09765625,0q-2.490234375,1.806640625-4.248046875,5.1513671875t-2.9541015625,7.5927734375t-1.904296875,8.935546875t-0.9521484375,9.27734375q-0.1953125,3.22265625-0.1953125,6.25q0,1.171875,0.048828125,2.34375z M38.779296875,117.79296875q0.244140625-0.09765625,0.732421875-0.09765625q-0.1953125,0-0.341796875,0.048828125t-0.390625,0.048828125z M72.69873046875,101.923828125q0-10.595703125,0.9521484375-21.2158203125t3.9794921875-20.9228515625q0.87890625-3.076171875,2.294921875-6.0791015625t3.466796875-5.3466796875t4.8828125-3.80859375t6.73828125-1.46484375l1.025390625,0.09765625q4.19921875,0.5859375,6.201171875,3.3935546875t2.001953125,7.0068359375q0,1.123046875-0.2685546875,2.8076171875t-0.8544921875,3.2470703125t-1.5869140625,2.6611328125t-2.5146484375,1.0986328125q-0.68359375-0.09765625-1.2451171875-0.244140625t-1.0498046875-0.634765625q0.78125-1.708984375,1.3916015625-3.564453125t0.6103515625-4.248046875q0-0.87890625-0.146484375-2.24609375t-0.5615234375-2.7099609375t-1.0986328125-2.34375t-1.904296875-1.0009765625q-3.076171875,0-5.17578125,3.4423828125t-3.515625,8.7890625t-2.099609375,11.81640625t-1.0498046875,12.5t-0.4150390625,10.888671875t-0.048828125,6.8603515625q0,2.34375-0.048828125,5.17578125l0,0.634765625q0.048828125,2.490234375,0.341796875,4.736328125q0.390625,2.5390625,1.513671875,4.39453125t3.515625,2.1484375q0.732421875,0.09765625,1.416015625,0.09765625q2.83203125,0,5.126953125-1.611328125q2.83203125-2.001953125,5.029296875-5.2001953125t3.90625-7.03125t3.1494140625-7.2509765625t2.8076171875-5.6640625t2.83203125-2.24609375q0.48828125,0,1.46484375,0.1953125t0.9765625,0.927734375q0,0.1953125-0.09765625,0.537109375t-0.244140625,0.537109375q-1.318359375,5.17578125-3.3447265625,10.7421875t-5.17578125,10.1318359375t-7.71484375,7.4462890625t-10.9619140625,2.880859375q-4.58984375,0-7.4462890625-1.7333984375t-4.39453125-4.638671875t-2.099609375-6.5673828125t-0.5615234375-7.421875z"/><path fill="#" d=""/></svg>
